<mxfile host="app.diagrams.net" modified="2023-04-04T10:03:09.185Z" agent="Mozilla/5.0 (Windows NT 10.0; Win64; x64) AppleWebKit/537.36 (KHTML, like Gecko) Chrome/111.0.0.0 Safari/537.36" etag="gCvp62hNSlKyU_ahYrbS" version="21.1.4" type="github" pages="2">
  <diagram name="用户用例" id="Ls7K0tPQuNfY7hqSEUxq">
    <mxGraphModel dx="1290" dy="549" grid="1" gridSize="10" guides="1" tooltips="1" connect="1" arrows="1" fold="1" page="1" pageScale="1" pageWidth="850" pageHeight="1100" math="0" shadow="0">
      <root>
        <mxCell id="0" />
        <mxCell id="1" parent="0" />
        <mxCell id="lqsAXwYk-Pn6xzD3KIGw-12" value="用户发布作品" style="ellipse;whiteSpace=wrap;html=1;" parent="1" vertex="1">
          <mxGeometry x="150" y="210" width="140" height="70" as="geometry" />
        </mxCell>
        <mxCell id="lqsAXwYk-Pn6xzD3KIGw-13" value="显示作品" style="ellipse;whiteSpace=wrap;html=1;" parent="1" vertex="1">
          <mxGeometry x="150" y="442.5" width="140" height="70" as="geometry" />
        </mxCell>
        <mxCell id="lqsAXwYk-Pn6xzD3KIGw-28" value="用户" style="shape=umlActor;verticalLabelPosition=bottom;verticalAlign=top;html=1;" parent="1" vertex="1">
          <mxGeometry x="40" y="500" width="30" height="60" as="geometry" />
        </mxCell>
        <mxCell id="lqsAXwYk-Pn6xzD3KIGw-34" value="" style="endArrow=open;endFill=1;endSize=12;html=1;rounded=0;entryX=0;entryY=0.5;entryDx=0;entryDy=0;exitX=0.5;exitY=0;exitDx=0;exitDy=0;exitPerimeter=0;" parent="1" target="lqsAXwYk-Pn6xzD3KIGw-12" edge="1" source="lqsAXwYk-Pn6xzD3KIGw-28">
          <mxGeometry width="160" relative="1" as="geometry">
            <mxPoint x="70" y="560" as="sourcePoint" />
            <mxPoint x="160" y="565" as="targetPoint" />
          </mxGeometry>
        </mxCell>
        <mxCell id="lqsAXwYk-Pn6xzD3KIGw-35" value="" style="endArrow=open;endFill=1;endSize=12;html=1;rounded=0;entryX=0;entryY=0.5;entryDx=0;entryDy=0;" parent="1" target="lqsAXwYk-Pn6xzD3KIGw-13" edge="1">
          <mxGeometry width="160" relative="1" as="geometry">
            <mxPoint x="60" y="510" as="sourcePoint" />
            <mxPoint x="160" y="660" as="targetPoint" />
          </mxGeometry>
        </mxCell>
        <mxCell id="lqsAXwYk-Pn6xzD3KIGw-38" value="用户登录" style="ellipse;whiteSpace=wrap;html=1;" parent="1" vertex="1">
          <mxGeometry x="150" y="760" width="140" height="70" as="geometry" />
        </mxCell>
        <mxCell id="lqsAXwYk-Pn6xzD3KIGw-39" value="创作作品" style="ellipse;whiteSpace=wrap;html=1;" parent="1" vertex="1">
          <mxGeometry x="150" y="330" width="140" height="70" as="geometry" />
        </mxCell>
        <mxCell id="lqsAXwYk-Pn6xzD3KIGw-40" value="" style="endArrow=open;endFill=1;endSize=12;html=1;rounded=0;exitX=0.75;exitY=0.1;exitDx=0;exitDy=0;exitPerimeter=0;entryX=0;entryY=0.5;entryDx=0;entryDy=0;" parent="1" source="lqsAXwYk-Pn6xzD3KIGw-28" target="lqsAXwYk-Pn6xzD3KIGw-39" edge="1">
          <mxGeometry width="160" relative="1" as="geometry">
            <mxPoint x="65" y="540" as="sourcePoint" />
            <mxPoint x="160" y="660" as="targetPoint" />
          </mxGeometry>
        </mxCell>
        <mxCell id="QdY-Qry2OtvvlMqrms4v-10" value="" style="endArrow=open;endFill=1;endSize=12;html=1;rounded=0;entryX=0;entryY=0.5;entryDx=0;entryDy=0;" parent="1" target="lqsAXwYk-Pn6xzD3KIGw-38" edge="1">
          <mxGeometry width="160" relative="1" as="geometry">
            <mxPoint x="70" y="560" as="sourcePoint" />
            <mxPoint x="150" y="663" as="targetPoint" />
          </mxGeometry>
        </mxCell>
        <mxCell id="2dmeA4Bhz2EfiE8mzf7R-3" value="用户注册" style="ellipse;whiteSpace=wrap;html=1;" parent="1" vertex="1">
          <mxGeometry x="150" y="880" width="140" height="70" as="geometry" />
        </mxCell>
        <mxCell id="2dmeA4Bhz2EfiE8mzf7R-4" value="" style="endArrow=open;endFill=1;endSize=12;html=1;rounded=0;entryX=0;entryY=0.5;entryDx=0;entryDy=0;exitX=1;exitY=1;exitDx=0;exitDy=0;exitPerimeter=0;" parent="1" source="lqsAXwYk-Pn6xzD3KIGw-28" target="2dmeA4Bhz2EfiE8mzf7R-3" edge="1">
          <mxGeometry width="160" relative="1" as="geometry">
            <mxPoint x="80" y="570" as="sourcePoint" />
            <mxPoint x="150" y="785" as="targetPoint" />
          </mxGeometry>
        </mxCell>
        <mxCell id="2dmeA4Bhz2EfiE8mzf7R-5" value="将作品添加至喜欢库" style="ellipse;whiteSpace=wrap;html=1;" parent="1" vertex="1">
          <mxGeometry x="330" y="592.5" width="140" height="70" as="geometry" />
        </mxCell>
        <mxCell id="2dmeA4Bhz2EfiE8mzf7R-6" value="将作品添加到收藏库" style="ellipse;whiteSpace=wrap;html=1;" parent="1" vertex="1">
          <mxGeometry x="330" y="715" width="140" height="70" as="geometry" />
        </mxCell>
        <mxCell id="2dmeA4Bhz2EfiE8mzf7R-7" value="&amp;lt;&amp;lt;extend&amp;gt;&amp;gt;" style="html=1;verticalAlign=bottom;labelBackgroundColor=none;endArrow=open;endFill=0;dashed=1;rounded=0;entryX=1;entryY=0.5;entryDx=0;entryDy=0;exitX=0;exitY=0.5;exitDx=0;exitDy=0;" parent="1" source="2dmeA4Bhz2EfiE8mzf7R-5" target="lqsAXwYk-Pn6xzD3KIGw-13" edge="1">
          <mxGeometry width="160" relative="1" as="geometry">
            <mxPoint x="310" y="670" as="sourcePoint" />
            <mxPoint x="470" y="670" as="targetPoint" />
          </mxGeometry>
        </mxCell>
        <mxCell id="2dmeA4Bhz2EfiE8mzf7R-8" value="&amp;lt;&amp;lt;extend&amp;gt;&amp;gt;" style="html=1;verticalAlign=bottom;labelBackgroundColor=none;endArrow=open;endFill=0;dashed=1;rounded=0;entryX=1;entryY=0.5;entryDx=0;entryDy=0;exitX=0;exitY=0.5;exitDx=0;exitDy=0;" parent="1" source="2dmeA4Bhz2EfiE8mzf7R-6" target="lqsAXwYk-Pn6xzD3KIGw-13" edge="1">
          <mxGeometry width="160" relative="1" as="geometry">
            <mxPoint x="390" y="663" as="sourcePoint" />
            <mxPoint x="290" y="663" as="targetPoint" />
          </mxGeometry>
        </mxCell>
        <mxCell id="nc2zGVG0zKxSIYwJ1DIh-1" value="删除作品" style="ellipse;whiteSpace=wrap;html=1;" vertex="1" parent="1">
          <mxGeometry x="150" y="670" width="140" height="70" as="geometry" />
        </mxCell>
        <mxCell id="nc2zGVG0zKxSIYwJ1DIh-2" value="" style="endArrow=open;endFill=1;endSize=12;html=1;rounded=0;entryX=0;entryY=0;entryDx=0;entryDy=0;exitX=1;exitY=0.3333333333333333;exitDx=0;exitDy=0;exitPerimeter=0;" edge="1" parent="1" source="lqsAXwYk-Pn6xzD3KIGw-28" target="nc2zGVG0zKxSIYwJ1DIh-1">
          <mxGeometry width="160" relative="1" as="geometry">
            <mxPoint x="100" y="560" as="sourcePoint" />
            <mxPoint x="150" y="885" as="targetPoint" />
          </mxGeometry>
        </mxCell>
        <mxCell id="nc2zGVG0zKxSIYwJ1DIh-3" value="&amp;lt;&amp;lt;include&amp;gt;&amp;gt;" style="html=1;verticalAlign=bottom;labelBackgroundColor=none;endArrow=open;endFill=0;dashed=1;rounded=0;" edge="1" parent="1" target="lqsAXwYk-Pn6xzD3KIGw-13">
          <mxGeometry width="160" relative="1" as="geometry">
            <mxPoint x="220" y="670" as="sourcePoint" />
            <mxPoint x="380" y="670" as="targetPoint" />
          </mxGeometry>
        </mxCell>
        <mxCell id="nc2zGVG0zKxSIYwJ1DIh-4" value="将作品添加至草稿箱" style="ellipse;whiteSpace=wrap;html=1;" vertex="1" parent="1">
          <mxGeometry x="330" y="430" width="140" height="70" as="geometry" />
        </mxCell>
        <mxCell id="nc2zGVG0zKxSIYwJ1DIh-5" value="&amp;lt;&amp;lt;extend&amp;gt;&amp;gt;" style="html=1;verticalAlign=bottom;labelBackgroundColor=none;endArrow=open;endFill=0;dashed=1;rounded=0;entryX=1;entryY=0.5;entryDx=0;entryDy=0;exitX=0;exitY=0.5;exitDx=0;exitDy=0;" edge="1" parent="1" source="nc2zGVG0zKxSIYwJ1DIh-4" target="lqsAXwYk-Pn6xzD3KIGw-39">
          <mxGeometry width="160" relative="1" as="geometry">
            <mxPoint x="350" y="340" as="sourcePoint" />
            <mxPoint x="510" y="340" as="targetPoint" />
          </mxGeometry>
        </mxCell>
        <mxCell id="nc2zGVG0zKxSIYwJ1DIh-7" value="&amp;lt;&amp;lt;include&amp;gt;&amp;gt;" style="html=1;verticalAlign=bottom;labelBackgroundColor=none;endArrow=open;endFill=0;dashed=1;rounded=0;exitX=0.5;exitY=1;exitDx=0;exitDy=0;entryX=0.5;entryY=0;entryDx=0;entryDy=0;" edge="1" parent="1" source="lqsAXwYk-Pn6xzD3KIGw-12" target="lqsAXwYk-Pn6xzD3KIGw-39">
          <mxGeometry width="160" relative="1" as="geometry">
            <mxPoint x="220" y="270" as="sourcePoint" />
            <mxPoint x="380" y="270" as="targetPoint" />
          </mxGeometry>
        </mxCell>
      </root>
    </mxGraphModel>
  </diagram>
  <diagram id="ZyjqmMw9CZnlBfE0Jlt9" name="管理员用例">
    <mxGraphModel dx="1843" dy="784" grid="1" gridSize="10" guides="1" tooltips="1" connect="1" arrows="1" fold="1" page="1" pageScale="1" pageWidth="850" pageHeight="1100" math="0" shadow="0">
      <root>
        <mxCell id="0" />
        <mxCell id="1" parent="0" />
        <mxCell id="wDBgF_jSMy4CvAJuJDXV-1" value="管理员" style="shape=umlActor;verticalLabelPosition=bottom;verticalAlign=top;html=1;" vertex="1" parent="1">
          <mxGeometry x="50" y="507.5" width="30" height="60" as="geometry" />
        </mxCell>
        <mxCell id="wDBgF_jSMy4CvAJuJDXV-2" value="图片管理" style="ellipse;whiteSpace=wrap;html=1;" vertex="1" parent="1">
          <mxGeometry x="120" y="480" width="140" height="70" as="geometry" />
        </mxCell>
        <mxCell id="wDBgF_jSMy4CvAJuJDXV-3" value="用户管理" style="ellipse;whiteSpace=wrap;html=1;" vertex="1" parent="1">
          <mxGeometry x="120" y="600" width="140" height="70" as="geometry" />
        </mxCell>
        <mxCell id="wDBgF_jSMy4CvAJuJDXV-4" value="" style="endArrow=open;endFill=1;endSize=12;html=1;rounded=0;exitX=1;exitY=0.3333333333333333;exitDx=0;exitDy=0;exitPerimeter=0;entryX=0;entryY=0.714;entryDx=0;entryDy=0;entryPerimeter=0;" edge="1" parent="1" source="wDBgF_jSMy4CvAJuJDXV-1" target="wDBgF_jSMy4CvAJuJDXV-2">
          <mxGeometry width="160" relative="1" as="geometry">
            <mxPoint x="40" y="487.5" as="sourcePoint" />
            <mxPoint x="200" y="487.5" as="targetPoint" />
          </mxGeometry>
        </mxCell>
        <mxCell id="wDBgF_jSMy4CvAJuJDXV-5" value="" style="endArrow=open;endFill=1;endSize=12;html=1;rounded=0;exitX=0.506;exitY=0.677;exitDx=0;exitDy=0;exitPerimeter=0;" edge="1" parent="1" source="wDBgF_jSMy4CvAJuJDXV-1" target="wDBgF_jSMy4CvAJuJDXV-3">
          <mxGeometry width="160" relative="1" as="geometry">
            <mxPoint x="60" y="537.5" as="sourcePoint" />
            <mxPoint x="380" y="590" as="targetPoint" />
          </mxGeometry>
        </mxCell>
        <mxCell id="wDBgF_jSMy4CvAJuJDXV-6" value="用户对图片管理" style="ellipse;whiteSpace=wrap;html=1;" vertex="1" parent="1">
          <mxGeometry x="355" y="350" width="140" height="70" as="geometry" />
        </mxCell>
        <mxCell id="wDBgF_jSMy4CvAJuJDXV-7" value="作品库图片管理" style="ellipse;whiteSpace=wrap;html=1;" vertex="1" parent="1">
          <mxGeometry x="350" y="460" width="140" height="70" as="geometry" />
        </mxCell>
        <mxCell id="wDBgF_jSMy4CvAJuJDXV-8" value="新增用户信息" style="ellipse;whiteSpace=wrap;html=1;" vertex="1" parent="1">
          <mxGeometry x="355" y="560" width="140" height="70" as="geometry" />
        </mxCell>
        <mxCell id="wDBgF_jSMy4CvAJuJDXV-9" value="修改用户信息" style="ellipse;whiteSpace=wrap;html=1;" vertex="1" parent="1">
          <mxGeometry x="355" y="660" width="140" height="70" as="geometry" />
        </mxCell>
        <mxCell id="wDBgF_jSMy4CvAJuJDXV-10" value="删除用户信息" style="ellipse;whiteSpace=wrap;html=1;" vertex="1" parent="1">
          <mxGeometry x="355" y="760" width="140" height="70" as="geometry" />
        </mxCell>
        <mxCell id="wDBgF_jSMy4CvAJuJDXV-11" value="审核图片" style="ellipse;whiteSpace=wrap;html=1;" vertex="1" parent="1">
          <mxGeometry x="550" y="270" width="140" height="70" as="geometry" />
        </mxCell>
        <mxCell id="wDBgF_jSMy4CvAJuJDXV-12" value="删除图片" style="ellipse;whiteSpace=wrap;html=1;" vertex="1" parent="1">
          <mxGeometry x="550" y="360" width="140" height="70" as="geometry" />
        </mxCell>
        <mxCell id="wDBgF_jSMy4CvAJuJDXV-13" value="新增图片" style="ellipse;whiteSpace=wrap;html=1;" vertex="1" parent="1">
          <mxGeometry x="550" y="470" width="140" height="70" as="geometry" />
        </mxCell>
        <mxCell id="wDBgF_jSMy4CvAJuJDXV-14" value="删除图片" style="ellipse;whiteSpace=wrap;html=1;" vertex="1" parent="1">
          <mxGeometry x="550" y="550" width="140" height="70" as="geometry" />
        </mxCell>
        <mxCell id="wDBgF_jSMy4CvAJuJDXV-17" value="" style="endArrow=block;html=1;rounded=0;align=center;verticalAlign=bottom;endFill=0;labelBackgroundColor=none;endSize=8;entryX=1;entryY=0.5;entryDx=0;entryDy=0;exitX=0;exitY=0.5;exitDx=0;exitDy=0;" edge="1" parent="1" source="wDBgF_jSMy4CvAJuJDXV-6" target="wDBgF_jSMy4CvAJuJDXV-2">
          <mxGeometry relative="1" as="geometry">
            <mxPoint x="260" y="430" as="sourcePoint" />
            <mxPoint x="420" y="430" as="targetPoint" />
          </mxGeometry>
        </mxCell>
        <mxCell id="wDBgF_jSMy4CvAJuJDXV-18" value="" style="resizable=0;html=1;align=center;verticalAlign=top;labelBackgroundColor=none;" connectable="0" vertex="1" parent="wDBgF_jSMy4CvAJuJDXV-17">
          <mxGeometry relative="1" as="geometry" />
        </mxCell>
        <mxCell id="wDBgF_jSMy4CvAJuJDXV-20" value="" style="endArrow=block;html=1;rounded=0;align=center;verticalAlign=bottom;endFill=0;labelBackgroundColor=none;endSize=8;entryX=1;entryY=0.5;entryDx=0;entryDy=0;exitX=0;exitY=0.5;exitDx=0;exitDy=0;" edge="1" parent="1" source="wDBgF_jSMy4CvAJuJDXV-7" target="wDBgF_jSMy4CvAJuJDXV-2">
          <mxGeometry relative="1" as="geometry">
            <mxPoint x="365" y="395" as="sourcePoint" />
            <mxPoint x="270" y="525" as="targetPoint" />
          </mxGeometry>
        </mxCell>
        <mxCell id="wDBgF_jSMy4CvAJuJDXV-21" value="" style="resizable=0;html=1;align=center;verticalAlign=top;labelBackgroundColor=none;" connectable="0" vertex="1" parent="wDBgF_jSMy4CvAJuJDXV-20">
          <mxGeometry relative="1" as="geometry" />
        </mxCell>
        <mxCell id="wDBgF_jSMy4CvAJuJDXV-22" value="" style="endArrow=block;html=1;rounded=0;align=center;verticalAlign=bottom;endFill=0;labelBackgroundColor=none;endSize=8;entryX=1;entryY=0.5;entryDx=0;entryDy=0;exitX=0;exitY=0.5;exitDx=0;exitDy=0;" edge="1" parent="1" source="wDBgF_jSMy4CvAJuJDXV-11" target="wDBgF_jSMy4CvAJuJDXV-6">
          <mxGeometry relative="1" as="geometry">
            <mxPoint x="365" y="395" as="sourcePoint" />
            <mxPoint x="270" y="525" as="targetPoint" />
          </mxGeometry>
        </mxCell>
        <mxCell id="wDBgF_jSMy4CvAJuJDXV-23" value="" style="resizable=0;html=1;align=center;verticalAlign=top;labelBackgroundColor=none;" connectable="0" vertex="1" parent="wDBgF_jSMy4CvAJuJDXV-22">
          <mxGeometry relative="1" as="geometry" />
        </mxCell>
        <mxCell id="wDBgF_jSMy4CvAJuJDXV-24" value="" style="endArrow=block;html=1;rounded=0;align=center;verticalAlign=bottom;endFill=0;labelBackgroundColor=none;endSize=8;exitX=0;exitY=0.5;exitDx=0;exitDy=0;entryX=1;entryY=0.5;entryDx=0;entryDy=0;" edge="1" parent="1" source="wDBgF_jSMy4CvAJuJDXV-12" target="wDBgF_jSMy4CvAJuJDXV-6">
          <mxGeometry relative="1" as="geometry">
            <mxPoint x="560" y="315" as="sourcePoint" />
            <mxPoint x="490" y="390" as="targetPoint" />
          </mxGeometry>
        </mxCell>
        <mxCell id="wDBgF_jSMy4CvAJuJDXV-25" value="" style="resizable=0;html=1;align=center;verticalAlign=top;labelBackgroundColor=none;" connectable="0" vertex="1" parent="wDBgF_jSMy4CvAJuJDXV-24">
          <mxGeometry relative="1" as="geometry" />
        </mxCell>
        <mxCell id="wDBgF_jSMy4CvAJuJDXV-26" value="" style="endArrow=block;html=1;rounded=0;align=center;verticalAlign=bottom;endFill=0;labelBackgroundColor=none;endSize=8;exitX=0;exitY=0.5;exitDx=0;exitDy=0;" edge="1" parent="1" source="wDBgF_jSMy4CvAJuJDXV-13" target="wDBgF_jSMy4CvAJuJDXV-7">
          <mxGeometry relative="1" as="geometry">
            <mxPoint x="360" y="505" as="sourcePoint" />
            <mxPoint x="270" y="525" as="targetPoint" />
          </mxGeometry>
        </mxCell>
        <mxCell id="wDBgF_jSMy4CvAJuJDXV-27" value="" style="resizable=0;html=1;align=center;verticalAlign=top;labelBackgroundColor=none;" connectable="0" vertex="1" parent="wDBgF_jSMy4CvAJuJDXV-26">
          <mxGeometry relative="1" as="geometry" />
        </mxCell>
        <mxCell id="wDBgF_jSMy4CvAJuJDXV-28" value="" style="endArrow=block;html=1;rounded=0;align=center;verticalAlign=bottom;endFill=0;labelBackgroundColor=none;endSize=8;exitX=0;exitY=0.5;exitDx=0;exitDy=0;entryX=0.964;entryY=0.739;entryDx=0;entryDy=0;entryPerimeter=0;" edge="1" parent="1" source="wDBgF_jSMy4CvAJuJDXV-14" target="wDBgF_jSMy4CvAJuJDXV-7">
          <mxGeometry relative="1" as="geometry">
            <mxPoint x="560" y="515" as="sourcePoint" />
            <mxPoint x="499" y="510" as="targetPoint" />
          </mxGeometry>
        </mxCell>
        <mxCell id="wDBgF_jSMy4CvAJuJDXV-29" value="" style="resizable=0;html=1;align=center;verticalAlign=top;labelBackgroundColor=none;" connectable="0" vertex="1" parent="wDBgF_jSMy4CvAJuJDXV-28">
          <mxGeometry relative="1" as="geometry" />
        </mxCell>
        <mxCell id="wDBgF_jSMy4CvAJuJDXV-30" value="" style="endArrow=block;html=1;rounded=0;align=center;verticalAlign=bottom;endFill=0;labelBackgroundColor=none;endSize=8;entryX=1;entryY=0.5;entryDx=0;entryDy=0;exitX=0;exitY=0.5;exitDx=0;exitDy=0;" edge="1" parent="1" source="wDBgF_jSMy4CvAJuJDXV-8" target="wDBgF_jSMy4CvAJuJDXV-3">
          <mxGeometry relative="1" as="geometry">
            <mxPoint x="360" y="505" as="sourcePoint" />
            <mxPoint x="270" y="525" as="targetPoint" />
          </mxGeometry>
        </mxCell>
        <mxCell id="wDBgF_jSMy4CvAJuJDXV-31" value="" style="resizable=0;html=1;align=center;verticalAlign=top;labelBackgroundColor=none;" connectable="0" vertex="1" parent="wDBgF_jSMy4CvAJuJDXV-30">
          <mxGeometry relative="1" as="geometry" />
        </mxCell>
        <mxCell id="wDBgF_jSMy4CvAJuJDXV-32" value="" style="endArrow=block;html=1;rounded=0;align=center;verticalAlign=bottom;endFill=0;labelBackgroundColor=none;endSize=8;entryX=1;entryY=0.5;entryDx=0;entryDy=0;exitX=0;exitY=0.5;exitDx=0;exitDy=0;" edge="1" parent="1" source="wDBgF_jSMy4CvAJuJDXV-9" target="wDBgF_jSMy4CvAJuJDXV-3">
          <mxGeometry relative="1" as="geometry">
            <mxPoint x="365" y="605" as="sourcePoint" />
            <mxPoint x="270" y="645" as="targetPoint" />
          </mxGeometry>
        </mxCell>
        <mxCell id="wDBgF_jSMy4CvAJuJDXV-33" value="" style="resizable=0;html=1;align=center;verticalAlign=top;labelBackgroundColor=none;" connectable="0" vertex="1" parent="wDBgF_jSMy4CvAJuJDXV-32">
          <mxGeometry relative="1" as="geometry" />
        </mxCell>
        <mxCell id="wDBgF_jSMy4CvAJuJDXV-34" value="" style="endArrow=block;html=1;rounded=0;align=center;verticalAlign=bottom;endFill=0;labelBackgroundColor=none;endSize=8;exitX=0;exitY=0.5;exitDx=0;exitDy=0;entryX=0.957;entryY=0.757;entryDx=0;entryDy=0;entryPerimeter=0;" edge="1" parent="1" source="wDBgF_jSMy4CvAJuJDXV-10" target="wDBgF_jSMy4CvAJuJDXV-3">
          <mxGeometry relative="1" as="geometry">
            <mxPoint x="365" y="705" as="sourcePoint" />
            <mxPoint x="280" y="670" as="targetPoint" />
          </mxGeometry>
        </mxCell>
        <mxCell id="wDBgF_jSMy4CvAJuJDXV-35" value="" style="resizable=0;html=1;align=center;verticalAlign=top;labelBackgroundColor=none;" connectable="0" vertex="1" parent="wDBgF_jSMy4CvAJuJDXV-34">
          <mxGeometry relative="1" as="geometry" />
        </mxCell>
      </root>
    </mxGraphModel>
  </diagram>
</mxfile>
